<svg height="960" viewBox="0 0 960 960" width="960" xmlns="http://www.w3.org/2000/svg">
    <path d="M741.62 395.018C695.085 395.499 657.614 433.357 657.611 479.894C657.611 480.173 657.611 550.886 657.611 563.016C657.611 563.99 658.401 564.78 659.375 564.78L685.288 564.78C686.263 564.78 687.052 563.99 687.052 563.016L687.052 479.605C687.208 449.557 711.279 425.106 741.321 424.479L741.6 424.479C742.069 424.482 742.521 424.297 742.854 423.966C743.187 423.635 743.374 423.185 743.374 422.715L743.374 396.802C743.379 395.826 742.596 395.029 741.62 395.018Z" fill-rule="evenodd"/>
    <path d="M139.106 451.708C123.458 451.703 110.769 464.388 110.771 480.037C110.773 495.686 123.464 508.368 139.113 508.359C154.762 508.35 167.438 495.652 167.421 480.004C167.389 464.382 154.727 451.73 139.106 451.708Z" fill-rule="evenodd"/>
    <path d="M753.659 452.725C745.208 479.864 749.673 508.09 765.928 530.156C793.271 567.364 845.338 575.896 883.126 549.361C884.063 548.697 884.99 548.033 885.907 547.368L886.903 546.601C887.438 546.172 888.17 546.087 888.789 546.383C889.407 546.678 889.801 547.301 889.804 547.986L889.804 563.046C889.809 564.027 890.606 564.82 891.588 564.82L917.501 564.82C918.481 564.82 919.275 564.025 919.275 563.046L919.275 480.323C919.275 480.183 919.275 480.053 919.275 479.924C919.216 452.922 906.373 427.543 884.651 411.503C862.585 395.257 834.359 390.792 807.22 399.234C781.656 407.17 761.629 427.171 753.659 452.725ZM783.171 457.858C788.414 444.511 798.976 433.949 812.323 428.705C819.342 425.923 826.819 424.479 834.369 424.45C845.487 424.428 856.35 427.778 865.525 434.057C880.28 444.132 889.301 460.678 889.774 478.539L889.774 480.532C889.508 504.749 873.546 525.988 850.359 532.979C827.172 539.97 802.13 531.094 788.523 511.06C777.948 495.581 776.005 476.186 783.171 457.858Z" fill-rule="evenodd"/>
    <path d="M279.935 452.725C271.483 479.864 275.948 508.09 292.204 530.156C319.563 567.388 371.672 575.905 409.461 549.322C410.159 548.83 410.847 548.332 411.524 547.827L413.169 546.541C413.703 546.115 414.434 546.033 415.049 546.331C415.663 546.629 416.053 547.253 416.049 547.936L416.049 605.344C416.049 606.329 416.848 607.128 417.833 607.128L443.747 607.128C444.728 607.123 445.521 606.326 445.521 605.344L445.521 480.273C445.521 480.133 445.521 480.004 445.521 479.884C445.473 452.891 432.65 427.513 410.946 411.463C388.88 395.217 360.655 390.742 333.516 399.194C307.934 407.132 287.897 427.151 279.935 452.725ZM309.446 457.858C314.689 444.511 325.252 433.949 338.599 428.705C345.617 425.923 353.095 424.479 360.645 424.45C371.762 424.429 382.625 427.779 391.8 434.057C406.556 444.132 415.576 460.678 416.049 478.539L416.049 480.532C415.784 504.751 399.824 525.993 376.636 532.988C353.447 539.983 328.403 531.112 314.788 511.08C304.224 495.581 302.31 476.186 309.446 457.858Z" fill-rule="evenodd"/>
    <path d="M470.866 452.725C462.414 479.864 466.879 508.09 483.135 530.156C510.476 567.352 562.528 575.883 600.313 549.362C601.249 548.697 602.176 548.033 603.093 547.368L604.09 546.601C604.624 546.172 605.357 546.087 605.975 546.383C606.593 546.678 606.988 547.301 606.99 547.986L606.99 563.046C606.996 564.027 607.793 564.82 608.774 564.82L634.688 564.82C635.667 564.82 636.462 564.026 636.462 563.046L636.462 480.323C636.462 480.183 636.462 480.053 636.462 479.924C636.403 452.922 623.56 427.543 601.837 411.503C579.771 395.257 551.546 390.792 524.407 399.234C498.85 407.176 478.831 427.175 470.866 452.725ZM500.377 457.858C505.625 444.507 516.195 433.944 529.549 428.705C536.568 425.923 544.046 424.479 551.596 424.45C562.713 424.429 573.576 427.779 582.751 434.057C597.507 444.132 606.527 460.678 607 478.539L607 480.532C606.747 504.761 590.781 526.015 567.582 533.009C544.383 540.002 519.331 531.112 505.729 511.06C495.155 495.581 493.211 476.186 500.377 457.858Z" fill-rule="evenodd"/>
    <path d="M278.261 562.129L214.404 392.297C206.451 368.747 184.37 352.888 159.513 352.872C134.656 352.856 112.555 368.687 104.572 392.227L43.2372 554.524L40.9049 560.733C40.5789 561.607 40.7008 562.585 41.2312 563.352C41.7616 564.119 42.6336 564.577 43.566 564.581L68.8414 564.581C70.0228 564.58 71.0812 563.85 71.5025 562.747L93.6883 503.924L94.685 501.382L96.6783 496.239C97.0018 495.303 97.0018 494.285 96.6783 493.349C90.5132 473.773 98.5486 452.521 116.123 441.921C116.973 441.416 117.629 440.64 117.987 439.718L119.133 436.679L119.133 436.679L120.08 434.167L120.798 432.263L132.11 402.363C132.179 402.184 132.239 402.005 132.309 401.815C137.113 387.354 149.501 382.201 159.498 382.201C169.495 382.201 181.863 387.314 186.697 401.815C186.757 402.005 186.817 402.184 186.886 402.354L243.268 552.332L247.145 562.727C247.558 563.838 248.62 564.574 249.806 564.571L276.596 564.571C277.19 564.578 277.748 564.287 278.083 563.796C278.417 563.305 278.484 562.679 278.261 562.129Z" fill-rule="evenodd"/>
</svg>